<svg xmlns="http://www.w3.org/2000/svg" viewBox="0 0 342.5 148.2"><defs><style>.cls-1{isolation:isolate;}.cls-2{fill:#424242;}.cls-3{fill:#2a729c;}</style></defs><title>Ресурс 1logo</title><g id="Слой_2"><g id="Слой_1-2" ><g id="Слой_1-3" ><g class="cls-1"><path class="cls-2" d="M0,2.4H44.3V145.6H0Z"/></g><g class="cls-1"><path class="cls-2" d="M66,2.4H200.5V37.8H155.4V145.6H111.2V37.8H66.1V2.4Z"/></g><g class="cls-1"><path class="cls-2" d="M212.8,98.2l42.1-2.6c.9,6.8,2.8,12,5.6,15.6q6.9,8.7,19.5,8.7c6.3,0,11.2-1.5,14.6-4.4s5.1-6.4,5.1-10.3c0-3.7-1.6-7-4.9-10s-10.8-5.7-22.7-8.3c-19.4-4.4-33.2-10.2-41.5-17.4a35,35,0,0,1-12.5-27.6,36.9,36.9,0,0,1,6.4-20.8c4.3-6.5,10.7-11.7,19.2-15.4S264,.1,278.9.1c18.3,0,32.2,3.4,41.8,10.2S336,27.9,337.8,42.8l-41.7,2.4c-1.1-6.4-3.4-11.1-7-14.1s-8.4-4.4-14.7-4.4c-5.1,0-9,1.1-11.6,3.3a10,10,0,0,0-3.9,8c0,2.3,1.1,4.3,3.2,6.2s7,3.6,14.8,5.3c19.3,4.2,33.2,8.4,41.6,12.6S333,71.7,336.8,78a40.33,40.33,0,0,1,5.7,21.2,45.31,45.31,0,0,1-7.6,25.4,48.12,48.12,0,0,1-21.3,17.6q-13.65,6-34.5,6-36.45,0-50.6-14.1C219.1,124.7,214,112.7,212.8,98.2Z"/></g><rect id="e4_rectangle"  class="cls-3" width="44.4" height="38.3"/><polyline id="e6_polygon"  class="cls-3" points="218.4 0 218.4 38.1 279 0 218.4 0"/><rect class="cls-3" x="66" width="134.5" height="38.3"/></g></g></g></svg>
